<svg width="937" height="980" viewBox="0 0 937 980" fill="none" xmlns="http://www.w3.org/2000/svg">
<path d="M0 0H937V982H0V0Z" fill="#F7F7F7"/>
<path d="M493.156 144.109H466.156V172H452.094V103.75H496.531V115.141H466.156V132.766H493.156V144.109ZM531.594 172C530.969 170.781 530.516 169.266 530.234 167.453C526.953 171.109 522.688 172.938 517.438 172.938C512.469 172.938 508.344 171.5 505.062 168.625C501.812 165.75 500.188 162.125 500.188 157.75C500.188 152.375 502.172 148.25 506.141 145.375C510.141 142.5 515.906 141.047 523.438 141.016H529.672V138.109C529.672 135.766 529.062 133.891 527.844 132.484C526.656 131.078 524.766 130.375 522.172 130.375C519.891 130.375 518.094 130.922 516.781 132.016C515.5 133.109 514.859 134.609 514.859 136.516H501.312C501.312 133.578 502.219 130.859 504.031 128.359C505.844 125.859 508.406 123.906 511.719 122.5C515.031 121.062 518.75 120.344 522.875 120.344C529.125 120.344 534.078 121.922 537.734 125.078C541.422 128.203 543.266 132.609 543.266 138.297V160.281C543.297 165.094 543.969 168.734 545.281 171.203V172H531.594ZM520.391 162.578C522.391 162.578 524.234 162.141 525.922 161.266C527.609 160.359 528.859 159.156 529.672 157.656V148.938H524.609C517.828 148.938 514.219 151.281 513.781 155.969L513.734 156.766C513.734 158.453 514.328 159.844 515.516 160.938C516.703 162.031 518.328 162.578 520.391 162.578ZM581.141 157.984C581.141 156.328 580.312 155.031 578.656 154.094C577.031 153.125 574.406 152.266 570.781 151.516C558.719 148.984 552.688 143.859 552.688 136.141C552.688 131.641 554.547 127.891 558.266 124.891C562.016 121.859 566.906 120.344 572.938 120.344C579.375 120.344 584.516 121.859 588.359 124.891C592.234 127.922 594.172 131.859 594.172 136.703H580.625C580.625 134.766 580 133.172 578.75 131.922C577.5 130.641 575.547 130 572.891 130C570.609 130 568.844 130.516 567.594 131.547C566.344 132.578 565.719 133.891 565.719 135.484C565.719 136.984 566.422 138.203 567.828 139.141C569.266 140.047 571.672 140.844 575.047 141.531C578.422 142.188 581.266 142.938 583.578 143.781C590.734 146.406 594.312 150.953 594.312 157.422C594.312 162.047 592.328 165.797 588.359 168.672C584.391 171.516 579.266 172.938 572.984 172.938C568.734 172.938 564.953 172.188 561.641 170.688C558.359 169.156 555.781 167.078 553.906 164.453C552.031 161.797 551.094 158.938 551.094 155.875H563.938C564.062 158.281 564.953 160.125 566.609 161.406C568.266 162.688 570.484 163.328 573.266 163.328C575.859 163.328 577.812 162.844 579.125 161.875C580.469 160.875 581.141 159.578 581.141 157.984ZM619.297 108.812V121.281H627.969V131.219H619.297V156.531C619.297 158.406 619.656 159.75 620.375 160.562C621.094 161.375 622.469 161.781 624.5 161.781C626 161.781 627.328 161.672 628.484 161.453V171.719C625.828 172.531 623.094 172.938 620.281 172.938C610.781 172.938 605.938 168.141 605.75 158.547V131.219H598.344V121.281H605.75V108.812H619.297ZM487.484 267.094C487.484 264.438 486.547 262.406 484.672 261C482.797 259.562 479.422 258.062 474.547 256.5C469.672 254.906 465.812 253.344 462.969 251.812C455.219 247.625 451.344 241.984 451.344 234.891C451.344 231.203 452.375 227.922 454.438 225.047C456.531 222.141 459.516 219.875 463.391 218.25C467.297 216.625 471.672 215.812 476.516 215.812C481.391 215.812 485.734 216.703 489.547 218.484C493.359 220.234 496.312 222.719 498.406 225.938C500.531 229.156 501.594 232.812 501.594 236.906H487.531C487.531 233.781 486.547 231.359 484.578 229.641C482.609 227.891 479.844 227.016 476.281 227.016C472.844 227.016 470.172 227.75 468.266 229.219C466.359 230.656 465.406 232.562 465.406 234.938C465.406 237.156 466.516 239.016 468.734 240.516C470.984 242.016 474.281 243.422 478.625 244.734C486.625 247.141 492.453 250.125 496.109 253.688C499.766 257.25 501.594 261.688 501.594 267C501.594 272.906 499.359 277.547 494.891 280.922C490.422 284.266 484.406 285.938 476.844 285.938C471.594 285.938 466.812 284.984 462.5 283.078C458.188 281.141 454.891 278.5 452.609 275.156C450.359 271.812 449.234 267.938 449.234 263.531H463.344C463.344 271.062 467.844 274.828 476.844 274.828C480.188 274.828 482.797 274.156 484.672 272.812C486.547 271.438 487.484 269.531 487.484 267.094ZM533.609 285.938C526.172 285.938 520.109 283.656 515.422 279.094C510.766 274.531 508.438 268.453 508.438 260.859V259.547C508.438 254.453 509.422 249.906 511.391 245.906C513.359 241.875 516.141 238.781 519.734 236.625C523.359 234.438 527.484 233.344 532.109 233.344C539.047 233.344 544.5 235.531 548.469 239.906C552.469 244.281 554.469 250.484 554.469 258.516V264.047H522.172C522.609 267.359 523.922 270.016 526.109 272.016C528.328 274.016 531.125 275.016 534.5 275.016C539.719 275.016 543.797 273.125 546.734 269.344L553.391 276.797C551.359 279.672 548.609 281.922 545.141 283.547C541.672 285.141 537.828 285.938 533.609 285.938ZM532.062 244.312C529.375 244.312 527.188 245.219 525.5 247.031C523.844 248.844 522.781 251.438 522.312 254.812H541.156V253.734C541.094 250.734 540.281 248.422 538.719 246.797C537.156 245.141 534.938 244.312 532.062 244.312ZM590.703 246.984C588.859 246.734 587.234 246.609 585.828 246.609C580.703 246.609 577.344 248.344 575.75 251.812V285H562.203V234.281H575L575.375 240.328C578.094 235.672 581.859 233.344 586.672 233.344C588.172 233.344 589.578 233.547 590.891 233.953L590.703 246.984ZM617.094 268.453L626.516 234.281H640.672L623.562 285H610.625L593.516 234.281H607.672L617.094 268.453ZM660.969 285H647.375V234.281H660.969V285ZM646.578 221.156C646.578 219.125 647.25 217.453 648.594 216.141C649.969 214.828 651.828 214.172 654.172 214.172C656.484 214.172 658.328 214.828 659.703 216.141C661.078 217.453 661.766 219.125 661.766 221.156C661.766 223.219 661.062 224.906 659.656 226.219C658.281 227.531 656.453 228.188 654.172 228.188C651.891 228.188 650.047 227.531 648.641 226.219C647.266 224.906 646.578 223.219 646.578 221.156ZM693.266 275.016C695.766 275.016 697.797 274.328 699.359 272.953C700.922 271.578 701.734 269.75 701.797 267.469H714.5C714.469 270.906 713.531 274.062 711.688 276.938C709.844 279.781 707.312 282 704.094 283.594C700.906 285.156 697.375 285.938 693.5 285.938C686.25 285.938 680.531 283.641 676.344 279.047C672.156 274.422 670.062 268.047 670.062 259.922V259.031C670.062 251.219 672.141 244.984 676.297 240.328C680.453 235.672 686.156 233.344 693.406 233.344C699.75 233.344 704.828 235.156 708.641 238.781C712.484 242.375 714.438 247.172 714.5 253.172H701.797C701.734 250.547 700.922 248.422 699.359 246.797C697.797 245.141 695.734 244.312 693.172 244.312C690.016 244.312 687.625 245.469 686 247.781C684.406 250.062 683.609 253.781 683.609 258.938V260.344C683.609 265.562 684.406 269.312 686 271.594C687.594 273.875 690.016 275.016 693.266 275.016ZM745.578 285.938C738.141 285.938 732.078 283.656 727.391 279.094C722.734 274.531 720.406 268.453 720.406 260.859V259.547C720.406 254.453 721.391 249.906 723.359 245.906C725.328 241.875 728.109 238.781 731.703 236.625C735.328 234.438 739.453 233.344 744.078 233.344C751.016 233.344 756.469 235.531 760.438 239.906C764.438 244.281 766.438 250.484 766.438 258.516V264.047H734.141C734.578 267.359 735.891 270.016 738.078 272.016C740.297 274.016 743.094 275.016 746.469 275.016C751.688 275.016 755.766 273.125 758.703 269.344L765.359 276.797C763.328 279.672 760.578 281.922 757.109 283.547C753.641 285.141 749.797 285.938 745.578 285.938ZM744.031 244.312C741.344 244.312 739.156 245.219 737.469 247.031C735.812 248.844 734.75 251.438 734.281 254.812H753.125V253.734C753.062 250.734 752.25 248.422 750.688 246.797C749.125 245.141 746.906 244.312 744.031 244.312Z" fill="#283044" fill-opacity="0.1"/>
<path d="M752.5 979.5L1.5 526V137.5L940 730.5V979.5H752.5Z" fill="url(#paint0_linear_2436_15)" fill-opacity="0.2"/>
<path d="M907.5 885L84 352.5" stroke="white" stroke-width="20" stroke-linecap="round" stroke-linejoin="round" stroke-dasharray="40 100"/>
<path d="M265.008 551.421L303.997 529.004L303.998 529.007C311.106 525.241 320.237 525.777 330.199 531.528C352.865 544.614 371.239 579.721 371.239 609.942C371.239 626.557 365.678 638.219 356.91 643.193L356.916 643.207L319.482 664.757L265.008 551.421Z" fill="url(#paint1_linear_2436_15)"/>
<path d="M419.267 640.767L458.256 618.349L458.257 618.353C465.365 614.586 474.496 615.123 484.458 620.874C507.123 633.96 525.498 669.067 525.498 699.288C525.498 715.902 519.937 727.565 511.169 732.539L511.175 732.552L473.741 754.102L419.267 640.767Z" fill="url(#paint2_linear_2436_15)"/>
<path d="M231.233 477.348V290.332L531.398 303.203V490.219C531.4 494.504 529.279 498.789 525.037 501.238L406.128 569.889C397.672 574.772 387.252 574.772 378.796 569.889L237.593 488.366C233.353 485.919 231.233 481.633 231.233 477.348Z" fill="url(#paint3_linear_2436_15)"/>
<path d="M525.037 292.186L383.834 210.662C375.378 205.78 364.958 205.78 356.502 210.662L237.594 279.313C229.112 284.211 229.112 296.452 237.594 301.35L378.796 382.873C387.253 387.756 397.673 387.756 406.129 382.873L525.037 314.222C533.519 309.325 533.519 297.082 525.037 292.186Z" fill="url(#paint4_linear_2436_15)"/>
<path d="M479.254 265.752L327.596 353.312L287.366 330.085L439.024 242.525L479.254 265.752Z" fill="#DEA861"/>
<path d="M455.209 251.857L303.551 339.418L311.431 343.967L463.09 256.408L455.209 251.857Z" fill="#CC8241"/>
<path d="M650.336 568.03L621.584 447.491C618.139 433.049 608.903 420.66 596.045 413.237L534.248 377.514C530.546 375.376 526.32 376 523.378 378.319L415.355 440.686L393.694 453.192L519.061 728.289L646.208 654.882C647.096 654.517 647.932 654.035 648.691 653.447C651.102 651.583 652.733 648.673 652.733 645.193V588.409C652.733 581.546 651.928 574.706 650.336 568.03Z" fill="url(#paint5_linear_2436_15)"/>
<path d="M538 645.998L556.11 635.542C557.189 634.919 558.538 635.698 558.538 636.944V652.841C558.538 654.996 557.388 656.988 555.521 658.065L537.411 668.521C536.331 669.144 534.983 668.365 534.983 667.119V651.222C534.984 649.067 536.134 647.076 538 645.998Z" fill="#E9E5F6"/>
<path d="M627.119 594.494L645.229 584.039C646.309 583.416 647.657 584.195 647.657 585.441V601.338C647.657 603.493 646.508 605.485 644.641 606.562L626.53 617.017C625.451 617.64 624.103 616.862 624.103 615.616V599.718C624.103 597.563 625.252 595.572 627.119 594.494Z" fill="#E9E5F6"/>
<path d="M389.862 557.061V460.917C389.862 453.449 397.946 448.781 404.414 452.516L466.211 488.238C479.069 495.662 488.305 508.05 491.75 522.492L520.502 643.031C522.094 649.707 522.898 656.547 522.898 663.41V720.194C522.898 728.247 514.18 733.281 507.205 729.255L243.436 576.496C235.764 572.067 231.038 563.881 231.038 555.022V495.008C231.038 490.161 236.286 487.131 240.483 489.555L373.284 566.609C380.643 570.879 389.862 565.569 389.862 557.061Z" fill="#06DAAE"/>
<path d="M405.826 572.925V474.39L455.698 503.229C460.63 506.076 464.107 510.9 465.25 516.479L486.339 619.455L405.826 572.925Z" fill="url(#paint6_linear_2436_15)"/>
<path d="M617.609 457L506.853 520.945L529.616 619.454L640.373 555.509L617.609 457Z" fill="url(#paint7_linear_2436_15)"/>
<path d="M405.568 673.661C405.568 643.44 423.942 629.549 446.607 642.635C469.273 655.722 487.647 690.828 487.647 721.049C487.647 751.27 469.272 765.161 446.607 752.075C423.941 738.989 405.568 703.882 405.568 673.661Z" fill="url(#paint8_linear_2436_15)"/>
<path d="M462.155 733.223C473.431 728.419 475.687 708.366 467.195 688.435C458.702 668.503 442.676 656.24 431.401 661.045C420.125 665.85 417.868 685.902 426.361 705.833C434.853 725.765 450.879 738.028 462.155 733.223Z" fill="#E9E5F6"/>
<path d="M454.612 715.518C460.356 713.07 461.506 702.854 457.179 692.7C452.853 682.546 444.688 676.298 438.944 678.746C433.199 681.194 432.049 691.41 436.376 701.564C440.703 711.718 448.867 717.966 454.612 715.518Z" fill="#7662BD"/>
<path d="M251.309 584.315C251.309 554.094 269.683 540.203 292.348 553.289C315.014 566.376 333.388 601.483 333.388 631.703C333.388 661.924 315.013 675.815 292.348 662.729C269.682 649.644 251.309 614.536 251.309 584.315Z" fill="url(#paint9_linear_2436_15)"/>
<path d="M307.878 643.962C319.154 639.158 321.411 619.105 312.918 599.174C304.426 579.243 288.4 566.98 277.124 571.784C265.848 576.589 263.592 596.641 272.084 616.573C280.577 636.504 296.602 648.767 307.878 643.962Z" fill="#E9E5F6"/>
<path d="M279.331 600.494C279.331 590.907 285.159 586.502 292.348 590.653C299.538 594.804 305.366 605.939 305.366 615.525C305.366 625.112 299.537 629.517 292.348 625.366C285.159 621.215 279.331 610.08 279.331 600.494Z" fill="#7662BD"/>
<path d="M652.372 639.506L519.158 712.444L494.606 700.644V729.201L515.669 741.362C519.387 743.508 523.968 743.508 527.686 741.362L656.399 667.049C658.075 666.082 658.911 664.389 658.911 662.696V634.139L652.372 639.506Z" fill="url(#paint10_linear_2436_15)"/>
<path d="M500.304 697.355L522.898 710.399L652.733 635.439V627.67L656.399 629.787C659.749 631.721 659.749 636.557 656.399 638.491L527.686 712.803C523.968 714.95 519.387 714.95 515.669 712.803L494.606 700.643L500.304 697.355Z" fill="#A996EB"/>
<path d="M565.6 660.278L620.046 628.844V638.181C620.046 644.114 616.882 649.596 611.742 652.562L573.778 674.481C570.143 676.58 565.599 673.956 565.599 669.758V660.278H565.6Z" fill="url(#paint11_linear_2436_15)"/>
<path d="M150.548 358.327L245.027 412.875C249.854 415.663 252.828 420.814 252.828 426.388C252.828 431.242 247.573 434.277 243.368 431.849L148.89 377.301C144.062 374.514 141.089 369.363 141.089 363.789C141.089 358.934 146.344 355.9 150.548 358.327Z" fill="url(#paint12_linear_2436_15)"/>
<path d="M185.085 418.482L279.564 473.03C284.392 475.818 287.365 480.969 287.365 486.543C287.365 491.397 282.11 494.432 277.905 492.004L183.427 437.455C178.599 434.668 175.626 429.517 175.626 423.943C175.626 419.089 180.881 416.055 185.085 418.482Z" fill="url(#paint13_linear_2436_15)"/>
<defs>
<linearGradient id="paint0_linear_2436_15" x1="721.5" y1="1082.5" x2="-8.5" y2="390" gradientUnits="userSpaceOnUse">
<stop stop-color="#78A1BB"/>
<stop offset="1" stop-color="white" stop-opacity="0"/>
</linearGradient>
<linearGradient id="paint1_linear_2436_15" x1="322.049" y1="584.475" x2="305.175" y2="555.248" gradientUnits="userSpaceOnUse">
<stop stop-color="#43386B"/>
<stop offset="1" stop-color="#7662BD"/>
</linearGradient>
<linearGradient id="paint2_linear_2436_15" x1="476.308" y1="673.82" x2="459.434" y2="644.594" gradientUnits="userSpaceOnUse">
<stop stop-color="#43386B"/>
<stop offset="1" stop-color="#7662BD"/>
</linearGradient>
<linearGradient id="paint3_linear_2436_15" x1="416.455" y1="431.943" x2="375.222" y2="431.943" gradientUnits="userSpaceOnUse">
<stop stop-color="#DEA861"/>
<stop offset="1" stop-color="#CC8241"/>
</linearGradient>
<linearGradient id="paint4_linear_2436_15" x1="464.882" y1="248.521" x2="310.465" y2="337.673" gradientUnits="userSpaceOnUse">
<stop stop-color="#DEA861"/>
<stop offset="1" stop-color="#EBCBA0"/>
</linearGradient>
<linearGradient id="paint5_linear_2436_15" x1="559.455" y1="566.818" x2="504.537" y2="471.696" gradientUnits="userSpaceOnUse">
<stop stop-color="#236568"/>
<stop offset="0.1516" stop-color="#276A6C"/>
<stop offset="0.3251" stop-color="#337878"/>
<stop offset="0.5094" stop-color="#478E8C"/>
<stop offset="0.7011" stop-color="#62AFA7"/>
<stop offset="0.8968" stop-color="#86D7CA"/>
<stop offset="1" stop-color="#9BF0DF"/>
</linearGradient>
<linearGradient id="paint6_linear_2436_15" x1="446.083" y1="614.417" x2="446.083" y2="489.884" gradientUnits="userSpaceOnUse">
<stop stop-color="#43386B"/>
<stop offset="1" stop-color="#7662BD"/>
</linearGradient>
<linearGradient id="paint7_linear_2436_15" x1="573.613" y1="613.813" x2="573.613" y2="474.352" gradientUnits="userSpaceOnUse">
<stop stop-color="#43386B"/>
<stop offset="1" stop-color="#7662BD"/>
</linearGradient>
<linearGradient id="paint8_linear_2436_15" x1="446.607" y1="773.838" x2="446.607" y2="625.759" gradientUnits="userSpaceOnUse">
<stop stop-color="#43386B"/>
<stop offset="1" stop-color="#7662BD"/>
</linearGradient>
<linearGradient id="paint9_linear_2436_15" x1="292.348" y1="684.492" x2="292.348" y2="536.415" gradientUnits="userSpaceOnUse">
<stop stop-color="#43386B"/>
<stop offset="1" stop-color="#7662BD"/>
</linearGradient>
<linearGradient id="paint10_linear_2436_15" x1="517.644" y1="688.556" x2="537.461" y2="688.556" gradientUnits="userSpaceOnUse">
<stop stop-color="#43386B"/>
<stop offset="1" stop-color="#7662BD"/>
</linearGradient>
<linearGradient id="paint11_linear_2436_15" x1="592.823" y1="673.609" x2="592.823" y2="633.797" gradientUnits="userSpaceOnUse">
<stop stop-color="#43386B"/>
<stop offset="1" stop-color="#594A8E"/>
</linearGradient>
<linearGradient id="paint12_linear_2436_15" x1="261.29" y1="434.677" x2="149.044" y2="365.602" gradientUnits="userSpaceOnUse">
<stop stop-color="#43386B"/>
<stop offset="1" stop-color="#7662BD"/>
</linearGradient>
<linearGradient id="paint13_linear_2436_15" x1="295.829" y1="494.831" x2="183.582" y2="425.757" gradientUnits="userSpaceOnUse">
<stop stop-color="#43386B"/>
<stop offset="1" stop-color="#7662BD"/>
</linearGradient>
</defs>
</svg>
