<svg width="320" height="325" viewBox="0 0 320 325" fill="none" xmlns="http://www.w3.org/2000/svg">
<path d="M280 -1.74846e-06C302.091 -7.8281e-07 320 17.9086 320 40L320 325L-1.00001 325L-1 40C-1 17.9086 16.9086 -1.32485e-05 39 -1.22829e-05L280 -1.74846e-06Z" fill="#F7F7F7"/>
<path d="M175.684 40.541H165.559V51H160.285V25.4062H176.949V29.6777H165.559V36.2871H175.684V40.541ZM190.098 51C189.863 50.543 189.693 49.9746 189.588 49.2949C188.357 50.666 186.758 51.3516 184.789 51.3516C182.926 51.3516 181.379 50.8125 180.148 49.7344C178.93 48.6562 178.32 47.2969 178.32 45.6562C178.32 43.6406 179.064 42.0938 180.553 41.0156C182.053 39.9375 184.215 39.3926 187.039 39.3809H189.377V38.291C189.377 37.4121 189.148 36.709 188.691 36.1816C188.246 35.6543 187.537 35.3906 186.564 35.3906C185.709 35.3906 185.035 35.5957 184.543 36.0059C184.062 36.416 183.822 36.9785 183.822 37.6934H178.742C178.742 36.5918 179.082 35.5723 179.762 34.6348C180.441 33.6973 181.402 32.9648 182.645 32.4375C183.887 31.8984 185.281 31.6289 186.828 31.6289C189.172 31.6289 191.029 32.2207 192.4 33.4043C193.783 34.5762 194.475 36.2285 194.475 38.3613V46.6055C194.486 48.4102 194.738 49.7754 195.23 50.7012V51H190.098ZM185.896 47.4668C186.646 47.4668 187.338 47.3027 187.971 46.9746C188.604 46.6348 189.072 46.1836 189.377 45.6211V42.3516H187.479C184.936 42.3516 183.582 43.2305 183.418 44.9883L183.4 45.2871C183.4 45.9199 183.623 46.4414 184.068 46.8516C184.514 47.2617 185.123 47.4668 185.896 47.4668ZM208.678 45.7441C208.678 45.123 208.367 44.6367 207.746 44.2852C207.137 43.9219 206.152 43.5996 204.793 43.3184C200.27 42.3691 198.008 40.4473 198.008 37.5527C198.008 35.8652 198.705 34.459 200.1 33.334C201.506 32.1973 203.34 31.6289 205.602 31.6289C208.016 31.6289 209.943 32.1973 211.385 33.334C212.838 34.4707 213.564 35.9473 213.564 37.7637H208.484C208.484 37.0371 208.25 36.4395 207.781 35.9707C207.312 35.4902 206.58 35.25 205.584 35.25C204.729 35.25 204.066 35.4434 203.598 35.8301C203.129 36.2168 202.895 36.709 202.895 37.3066C202.895 37.8691 203.158 38.3262 203.686 38.6777C204.225 39.0176 205.127 39.3164 206.393 39.5742C207.658 39.8203 208.725 40.1016 209.592 40.418C212.275 41.4023 213.617 43.1074 213.617 45.5332C213.617 47.2676 212.873 48.6738 211.385 49.752C209.896 50.8184 207.975 51.3516 205.619 51.3516C204.025 51.3516 202.607 51.0703 201.365 50.5078C200.135 49.9336 199.168 49.1543 198.465 48.1699C197.762 47.1738 197.41 46.1016 197.41 44.9531H202.227C202.273 45.8555 202.607 46.5469 203.229 47.0273C203.85 47.5078 204.682 47.748 205.725 47.748C206.697 47.748 207.43 47.5664 207.922 47.2031C208.426 46.8281 208.678 46.3418 208.678 45.7441ZM222.986 27.3047V31.9805H226.238V35.707H222.986V45.1992C222.986 45.9023 223.121 46.4062 223.391 46.7109C223.66 47.0156 224.176 47.168 224.938 47.168C225.5 47.168 225.998 47.127 226.432 47.0449V50.8945C225.436 51.1992 224.41 51.3516 223.355 51.3516C219.793 51.3516 217.977 49.5527 217.906 45.9551V35.707H215.129V31.9805H217.906V27.3047H222.986ZM173.557 86.2852C173.557 85.2891 173.205 84.5273 172.502 84C171.799 83.4609 170.533 82.8984 168.705 82.3125C166.877 81.7148 165.43 81.1289 164.363 80.5547C161.457 78.9844 160.004 76.8691 160.004 74.209C160.004 72.8262 160.391 71.5957 161.164 70.5176C161.949 69.4277 163.068 68.5781 164.521 67.9688C165.986 67.3594 167.627 67.0547 169.443 67.0547C171.271 67.0547 172.9 67.3887 174.33 68.0566C175.76 68.7129 176.867 69.6445 177.652 70.8516C178.449 72.0586 178.848 73.4297 178.848 74.9648H173.574C173.574 73.793 173.205 72.8848 172.467 72.2402C171.729 71.584 170.691 71.2559 169.355 71.2559C168.066 71.2559 167.064 71.5312 166.35 72.082C165.635 72.6211 165.277 73.3359 165.277 74.2266C165.277 75.0586 165.693 75.7559 166.525 76.3184C167.369 76.8809 168.605 77.4082 170.234 77.9004C173.234 78.8027 175.42 79.9219 176.791 81.2578C178.162 82.5938 178.848 84.2578 178.848 86.25C178.848 88.4648 178.01 90.2051 176.334 91.4707C174.658 92.7246 172.402 93.3516 169.566 93.3516C167.598 93.3516 165.805 92.9941 164.188 92.2793C162.57 91.5527 161.334 90.5625 160.479 89.3086C159.635 88.0547 159.213 86.6016 159.213 84.9492H164.504C164.504 87.7734 166.191 89.1855 169.566 89.1855C170.82 89.1855 171.799 88.9336 172.502 88.4297C173.205 87.9141 173.557 87.1992 173.557 86.2852ZM190.854 93.3516C188.064 93.3516 185.791 92.4961 184.033 90.7852C182.287 89.0742 181.414 86.7949 181.414 83.9473V83.4551C181.414 81.5449 181.783 79.8398 182.521 78.3398C183.26 76.8281 184.303 75.668 185.65 74.8594C187.01 74.0391 188.557 73.6289 190.291 73.6289C192.893 73.6289 194.938 74.4492 196.426 76.0898C197.926 77.7305 198.676 80.0566 198.676 83.0684V85.1426H186.564C186.729 86.3848 187.221 87.3809 188.041 88.1309C188.873 88.8809 189.922 89.2559 191.188 89.2559C193.145 89.2559 194.674 88.5469 195.775 87.1289L198.271 89.9238C197.51 91.002 196.479 91.8457 195.178 92.4551C193.877 93.0527 192.436 93.3516 190.854 93.3516ZM190.273 77.7422C189.266 77.7422 188.445 78.082 187.812 78.7617C187.191 79.4414 186.793 80.4141 186.617 81.6797H193.684V81.2754C193.66 80.1504 193.355 79.2832 192.77 78.6738C192.184 78.0527 191.352 77.7422 190.273 77.7422ZM212.264 78.7441C211.572 78.6504 210.963 78.6035 210.436 78.6035C208.514 78.6035 207.254 79.2539 206.656 80.5547V93H201.576V73.9805H206.375L206.516 76.248C207.535 74.502 208.947 73.6289 210.752 73.6289C211.314 73.6289 211.842 73.7051 212.334 73.8574L212.264 78.7441ZM222.16 86.7949L225.693 73.9805H231.002L224.586 93H219.734L213.318 73.9805H218.627L222.16 86.7949ZM238.613 93H233.516V73.9805H238.613V93ZM233.217 69.0586C233.217 68.2969 233.469 67.6699 233.973 67.1777C234.488 66.6855 235.186 66.4395 236.064 66.4395C236.932 66.4395 237.623 66.6855 238.139 67.1777C238.654 67.6699 238.912 68.2969 238.912 69.0586C238.912 69.832 238.648 70.4648 238.121 70.957C237.605 71.4492 236.92 71.6953 236.064 71.6953C235.209 71.6953 234.518 71.4492 233.99 70.957C233.475 70.4648 233.217 69.832 233.217 69.0586ZM250.725 89.2559C251.662 89.2559 252.424 88.998 253.01 88.4824C253.596 87.9668 253.9 87.2812 253.924 86.4258H258.688C258.676 87.7148 258.324 88.8984 257.633 89.9766C256.941 91.043 255.992 91.875 254.785 92.4727C253.59 93.0586 252.266 93.3516 250.812 93.3516C248.094 93.3516 245.949 92.4902 244.379 90.7676C242.809 89.0332 242.023 86.6426 242.023 83.5957V83.2617C242.023 80.332 242.803 77.9941 244.361 76.248C245.92 74.502 248.059 73.6289 250.777 73.6289C253.156 73.6289 255.061 74.3086 256.49 75.668C257.932 77.0156 258.664 78.8145 258.688 81.0645H253.924C253.9 80.0801 253.596 79.2832 253.01 78.6738C252.424 78.0527 251.65 77.7422 250.689 77.7422C249.506 77.7422 248.609 78.1758 248 79.043C247.402 79.8984 247.104 81.293 247.104 83.2266V83.7539C247.104 85.7109 247.402 87.1172 248 87.9727C248.598 88.8281 249.506 89.2559 250.725 89.2559ZM270.342 93.3516C267.553 93.3516 265.279 92.4961 263.521 90.7852C261.775 89.0742 260.902 86.7949 260.902 83.9473V83.4551C260.902 81.5449 261.271 79.8398 262.01 78.3398C262.748 76.8281 263.791 75.668 265.139 74.8594C266.498 74.0391 268.045 73.6289 269.779 73.6289C272.381 73.6289 274.426 74.4492 275.914 76.0898C277.414 77.7305 278.164 80.0566 278.164 83.0684V85.1426H266.053C266.217 86.3848 266.709 87.3809 267.529 88.1309C268.361 88.8809 269.41 89.2559 270.676 89.2559C272.633 89.2559 274.162 88.5469 275.264 87.1289L277.76 89.9238C276.998 91.002 275.967 91.8457 274.666 92.4551C273.365 93.0527 271.924 93.3516 270.342 93.3516ZM269.762 77.7422C268.754 77.7422 267.934 78.082 267.301 78.7617C266.68 79.4414 266.281 80.4141 266.105 81.6797H273.172V81.2754C273.148 80.1504 272.844 79.2832 272.258 78.6738C271.672 78.0527 270.84 77.7422 269.762 77.7422Z" fill="#283044" fill-opacity="0.1"/>
<path d="M256.268 325L1 170.961V39L320 240.423V325H256.268Z" fill="url(#paint0_linear_2433_14)" fill-opacity="0.2"/>
<path d="M309 293L29 112" stroke="white" stroke-width="10" stroke-linecap="round" stroke-linejoin="round" stroke-dasharray="30 70"/>
<path d="M89.8574 179.73L103.184 172.067L103.185 172.068C105.615 170.78 108.736 170.964 112.141 172.93C119.889 177.403 126.169 189.403 126.169 199.733C126.169 205.412 124.268 209.399 121.271 211.099L121.273 211.104L108.477 218.47L89.8574 179.73Z" fill="url(#paint1_linear_2433_14)"/>
<path d="M142.586 210.27L155.913 202.607L155.913 202.608C158.343 201.32 161.464 201.504 164.869 203.47C172.617 207.943 178.897 219.943 178.897 230.273C178.897 235.952 176.997 239.939 174 241.639L174.002 241.643L161.206 249.009L142.586 210.27Z" fill="url(#paint2_linear_2433_14)"/>
<path d="M78.3125 154.41V90.4843L180.915 94.8839V158.809C180.915 160.274 180.19 161.739 178.74 162.576L138.095 186.042C135.205 187.711 131.643 187.711 128.752 186.042L80.4866 158.176C79.0373 157.34 78.3125 155.874 78.3125 154.41Z" fill="url(#paint3_linear_2433_14)"/>
<path d="M178.741 91.118L130.475 63.2518C127.585 61.5829 124.023 61.5829 121.133 63.2518L80.4875 86.718C77.5882 88.392 77.5882 92.5765 80.4875 94.2505L128.753 122.117C131.644 123.786 135.205 123.786 138.096 122.117L178.741 98.6505C181.64 96.9765 181.64 92.7916 178.741 91.118Z" fill="url(#paint4_linear_2433_14)"/>
<path d="M163.091 82.0826L111.251 112.012L97.5 104.073L149.34 74.1433L163.091 82.0826Z" fill="#DEA861"/>
<path d="M154.872 77.3331L103.032 107.263L105.726 108.818L157.565 78.8885L154.872 77.3331Z" fill="#CC8241"/>
<path d="M221.569 185.407L211.742 144.204C210.564 139.268 207.407 135.033 203.012 132.496L181.889 120.285C180.623 119.554 179.178 119.767 178.173 120.56L141.249 141.878L133.845 146.153L176.697 240.186L220.158 215.094C220.462 214.97 220.748 214.805 221.007 214.604C221.831 213.966 222.389 212.972 222.389 211.782V192.373C222.389 190.027 222.114 187.689 221.569 185.407Z" fill="url(#paint5_linear_2433_14)"/>
<path d="M183.171 212.057L189.362 208.484C189.731 208.271 190.191 208.537 190.191 208.963V214.397C190.191 215.133 189.799 215.814 189.16 216.182L182.97 219.756C182.601 219.969 182.14 219.703 182.14 219.277V213.843C182.141 213.107 182.533 212.426 183.171 212.057Z" fill="#E9E5F6"/>
<path d="M213.634 194.453L219.824 190.879C220.193 190.666 220.654 190.932 220.654 191.358V196.792C220.654 197.529 220.261 198.209 219.623 198.578L213.432 202.151C213.063 202.364 212.603 202.098 212.603 201.672V196.238C212.603 195.502 212.995 194.821 213.634 194.453Z" fill="#E9E5F6"/>
<path d="M132.535 181.657V148.794C132.535 146.241 135.298 144.645 137.509 145.922L158.632 158.132C163.027 160.67 166.185 164.904 167.362 169.841L177.19 211.043C177.734 213.325 178.009 215.663 178.009 218.009V237.419C178.009 240.172 175.029 241.892 172.645 240.516L82.4838 188.3C79.8614 186.786 78.2461 183.988 78.2461 180.96V160.446C78.2461 158.79 80.0398 157.754 81.4744 158.582L126.868 184.921C129.384 186.38 132.535 184.565 132.535 181.657Z" fill="#06DAAE"/>
<path d="M137.992 187.08V153.399L155.039 163.256C156.725 164.23 157.913 165.879 158.304 167.786L165.513 202.985L137.992 187.08Z" fill="url(#paint6_linear_2433_14)"/>
<path d="M210.383 147.454L172.524 169.312L180.305 202.984L218.164 181.127L210.383 147.454Z" fill="url(#paint7_linear_2433_14)"/>
<path d="M137.903 221.513C137.903 211.183 144.184 206.435 151.931 210.908C159.679 215.381 165.959 227.381 165.959 237.711C165.959 248.041 159.679 252.79 151.931 248.317C144.184 243.843 137.903 231.843 137.903 221.513Z" fill="url(#paint8_linear_2433_14)"/>
<path d="M157.246 241.873C161.1 240.23 161.872 233.376 158.969 226.563C156.066 219.75 150.588 215.559 146.734 217.201C142.879 218.843 142.108 225.697 145.011 232.51C147.914 239.323 153.392 243.515 157.246 241.873Z" fill="#E9E5F6"/>
<path d="M154.667 235.821C156.631 234.984 157.024 231.492 155.545 228.021C154.066 224.55 151.275 222.415 149.312 223.251C147.348 224.088 146.955 227.58 148.434 231.051C149.913 234.522 152.704 236.657 154.667 235.821Z" fill="#7662BD"/>
<path d="M85.1748 190.973C85.1748 180.643 91.4555 175.895 99.2028 180.368C106.951 184.841 113.231 196.841 113.231 207.171C113.231 217.501 106.95 222.249 99.2028 217.776C91.4552 213.304 85.1748 201.303 85.1748 190.973Z" fill="url(#paint9_linear_2433_14)"/>
<path d="M104.511 211.362C108.366 209.72 109.137 202.865 106.234 196.052C103.331 189.239 97.8532 185.048 93.9989 186.69C90.1446 188.332 89.3733 195.187 92.2762 201.999C95.1791 208.812 100.657 213.004 104.511 211.362Z" fill="#E9E5F6"/>
<path d="M94.7534 196.503C94.7534 193.227 96.7454 191.721 99.203 193.14C101.661 194.558 103.653 198.365 103.653 201.641C103.653 204.918 101.66 206.424 99.203 205.005C96.7454 203.586 94.7534 199.78 94.7534 196.503Z" fill="#7662BD"/>
<path d="M222.265 209.838L176.73 234.77L168.338 230.737V240.498L175.538 244.654C176.809 245.388 178.375 245.388 179.646 244.654L223.642 219.253C224.215 218.923 224.501 218.344 224.501 217.765V208.004L222.265 209.838Z" fill="url(#paint10_linear_2433_14)"/>
<path d="M170.286 229.612L178.009 234.071L222.389 208.448V205.793L223.642 206.516C224.787 207.178 224.787 208.831 223.642 209.492L179.646 234.893C178.375 235.626 176.809 235.626 175.538 234.893L168.338 230.736L170.286 229.612Z" fill="#A996EB"/>
<path d="M192.605 216.939L211.216 206.194V209.385C211.216 211.413 210.134 213.288 208.378 214.301L195.401 221.793C194.158 222.511 192.605 221.614 192.605 220.179V216.939H192.605Z" fill="url(#paint11_linear_2433_14)"/>
<path d="M50.733 113.726L83.0275 132.372C84.6776 133.325 85.694 135.085 85.694 136.991C85.694 138.65 83.8977 139.687 82.4605 138.857L50.166 120.212C48.5159 119.259 47.4995 117.499 47.4995 115.593C47.4995 113.934 49.2958 112.897 50.733 113.726Z" fill="url(#paint12_linear_2433_14)"/>
<path d="M62.5386 134.289L94.8331 152.934C96.4833 153.887 97.4997 155.647 97.4997 157.553C97.4997 159.212 95.7034 160.249 94.2662 159.42L61.9717 140.774C60.3216 139.821 59.3052 138.06 59.3052 136.155C59.3052 134.496 61.1015 133.459 62.5386 134.289Z" fill="url(#paint13_linear_2433_14)"/>
<defs>
<linearGradient id="paint0_linear_2433_14" x1="245.731" y1="359.986" x2="-2.23533" y2="124.594" gradientUnits="userSpaceOnUse">
<stop stop-color="#78A1BB"/>
<stop offset="1" stop-color="white" stop-opacity="0"/>
</linearGradient>
<linearGradient id="paint1_linear_2433_14" x1="109.355" y1="191.028" x2="103.587" y2="181.037" gradientUnits="userSpaceOnUse">
<stop stop-color="#43386B"/>
<stop offset="1" stop-color="#7662BD"/>
</linearGradient>
<linearGradient id="paint2_linear_2433_14" x1="162.084" y1="221.568" x2="156.316" y2="211.577" gradientUnits="userSpaceOnUse">
<stop stop-color="#43386B"/>
<stop offset="1" stop-color="#7662BD"/>
</linearGradient>
<linearGradient id="paint3_linear_2433_14" x1="141.625" y1="138.889" x2="127.531" y2="138.889" gradientUnits="userSpaceOnUse">
<stop stop-color="#DEA861"/>
<stop offset="1" stop-color="#CC8241"/>
</linearGradient>
<linearGradient id="paint4_linear_2433_14" x1="158.179" y1="76.1926" x2="105.396" y2="106.667" gradientUnits="userSpaceOnUse">
<stop stop-color="#DEA861"/>
<stop offset="1" stop-color="#EBCBA0"/>
</linearGradient>
<linearGradient id="paint5_linear_2433_14" x1="190.505" y1="184.992" x2="171.733" y2="152.478" gradientUnits="userSpaceOnUse">
<stop stop-color="#236568"/>
<stop offset="0.1516" stop-color="#276A6C"/>
<stop offset="0.3251" stop-color="#337878"/>
<stop offset="0.5094" stop-color="#478E8C"/>
<stop offset="0.7011" stop-color="#62AFA7"/>
<stop offset="0.8968" stop-color="#86D7CA"/>
<stop offset="1" stop-color="#9BF0DF"/>
</linearGradient>
<linearGradient id="paint6_linear_2433_14" x1="151.752" y1="201.263" x2="151.752" y2="158.695" gradientUnits="userSpaceOnUse">
<stop stop-color="#43386B"/>
<stop offset="1" stop-color="#7662BD"/>
</linearGradient>
<linearGradient id="paint7_linear_2433_14" x1="195.344" y1="201.056" x2="195.344" y2="153.386" gradientUnits="userSpaceOnUse">
<stop stop-color="#43386B"/>
<stop offset="1" stop-color="#7662BD"/>
</linearGradient>
<linearGradient id="paint8_linear_2433_14" x1="151.931" y1="255.756" x2="151.931" y2="205.14" gradientUnits="userSpaceOnUse">
<stop stop-color="#43386B"/>
<stop offset="1" stop-color="#7662BD"/>
</linearGradient>
<linearGradient id="paint9_linear_2433_14" x1="99.2028" y1="225.216" x2="99.2028" y2="174.6" gradientUnits="userSpaceOnUse">
<stop stop-color="#43386B"/>
<stop offset="1" stop-color="#7662BD"/>
</linearGradient>
<linearGradient id="paint10_linear_2433_14" x1="176.213" y1="226.605" x2="182.987" y2="226.605" gradientUnits="userSpaceOnUse">
<stop stop-color="#43386B"/>
<stop offset="1" stop-color="#7662BD"/>
</linearGradient>
<linearGradient id="paint11_linear_2433_14" x1="201.911" y1="221.496" x2="201.911" y2="207.887" gradientUnits="userSpaceOnUse">
<stop stop-color="#43386B"/>
<stop offset="1" stop-color="#594A8E"/>
</linearGradient>
<linearGradient id="paint12_linear_2433_14" x1="88.5867" y1="139.824" x2="50.2189" y2="116.213" gradientUnits="userSpaceOnUse">
<stop stop-color="#43386B"/>
<stop offset="1" stop-color="#7662BD"/>
</linearGradient>
<linearGradient id="paint13_linear_2433_14" x1="100.393" y1="160.386" x2="62.0246" y2="136.775" gradientUnits="userSpaceOnUse">
<stop stop-color="#43386B"/>
<stop offset="1" stop-color="#7662BD"/>
</linearGradient>
</defs>
</svg>
