<svg width="185" height="41" viewBox="0 0 185 41" fill="none" xmlns="http://www.w3.org/2000/svg">
<path d="M63.0391 10.9375V28H59.5234V10.9375H63.0391ZM69.8359 18.2266V20.9688H62.0781V18.2266H69.8359ZM70.6562 10.9375V13.6914H62.0781V10.9375H70.6562ZM78.9297 25.1406V19.4922C78.9297 19.0859 78.8633 18.7383 78.7305 18.4492C78.5977 18.1523 78.3906 17.9219 78.1094 17.7578C77.8359 17.5938 77.4805 17.5117 77.043 17.5117C76.668 17.5117 76.3438 17.5781 76.0703 17.7109C75.7969 17.8359 75.5859 18.0195 75.4375 18.2617C75.2891 18.4961 75.2148 18.7734 75.2148 19.0938H71.8398C71.8398 18.5547 71.9648 18.043 72.2148 17.5586C72.4648 17.0742 72.8281 16.6484 73.3047 16.2812C73.7812 15.9062 74.3477 15.6133 75.0039 15.4023C75.668 15.1914 76.4102 15.0859 77.2305 15.0859C78.2148 15.0859 79.0898 15.25 79.8555 15.5781C80.6211 15.9062 81.2227 16.3984 81.6602 17.0547C82.1055 17.7109 82.3281 18.5312 82.3281 19.5156V24.9414C82.3281 25.6367 82.3711 26.207 82.457 26.6523C82.543 27.0898 82.668 27.4727 82.832 27.8008V28H79.4219C79.2578 27.6562 79.1328 27.2266 79.0469 26.7109C78.9688 26.1875 78.9297 25.6641 78.9297 25.1406ZM79.375 20.2773L79.3984 22.1875H77.5117C77.0664 22.1875 76.6797 22.2383 76.3516 22.3398C76.0234 22.4414 75.7539 22.5859 75.543 22.7734C75.332 22.9531 75.1758 23.1641 75.0742 23.4062C74.9805 23.6484 74.9336 23.9141 74.9336 24.2031C74.9336 24.4922 75 24.7539 75.1328 24.9883C75.2656 25.2148 75.457 25.3945 75.707 25.5273C75.957 25.6523 76.25 25.7148 76.5859 25.7148C77.0938 25.7148 77.5352 25.6133 77.9102 25.4102C78.2852 25.207 78.5742 24.957 78.7773 24.6602C78.9883 24.3633 79.0977 24.082 79.1055 23.8164L79.9961 25.2461C79.8711 25.5664 79.6992 25.8984 79.4805 26.2422C79.2695 26.5859 79 26.9102 78.6719 27.2148C78.3438 27.5117 77.9492 27.7578 77.4883 27.9531C77.0273 28.1406 76.4805 28.2344 75.8477 28.2344C75.043 28.2344 74.3125 28.0742 73.6562 27.7539C73.0078 27.4258 72.4922 26.9766 72.1094 26.4062C71.7344 25.8281 71.5469 25.1719 71.5469 24.4375C71.5469 23.7734 71.6719 23.1836 71.9219 22.668C72.1719 22.1523 72.5391 21.7188 73.0234 21.3672C73.5156 21.0078 74.1289 20.7383 74.8633 20.5586C75.5977 20.3711 76.4492 20.2773 77.418 20.2773H79.375ZM91.7852 24.4961C91.7852 24.2539 91.7148 24.0352 91.5742 23.8398C91.4336 23.6445 91.1719 23.4648 90.7891 23.3008C90.4141 23.1289 89.8711 22.9727 89.1602 22.832C88.5195 22.6914 87.9219 22.5156 87.3672 22.3047C86.8203 22.0859 86.3438 21.8242 85.9375 21.5195C85.5391 21.2148 85.2266 20.8555 85 20.4414C84.7734 20.0195 84.6602 19.5391 84.6602 19C84.6602 18.4688 84.7734 17.9688 85 17.5C85.2344 17.0312 85.5664 16.6172 85.9961 16.2578C86.4336 15.8906 86.9648 15.6055 87.5898 15.4023C88.2227 15.1914 88.9336 15.0859 89.7227 15.0859C90.8242 15.0859 91.7695 15.2617 92.5586 15.6133C93.3555 15.9648 93.9648 16.4492 94.3867 17.0664C94.8164 17.6758 95.0312 18.3711 95.0312 19.1523H91.6562C91.6562 18.8242 91.5859 18.5312 91.4453 18.2734C91.3125 18.0078 91.1016 17.8008 90.8125 17.6523C90.5312 17.4961 90.1641 17.418 89.7109 17.418C89.3359 17.418 89.0117 17.4844 88.7383 17.6172C88.4648 17.7422 88.2539 17.9141 88.1055 18.1328C87.9648 18.3438 87.8945 18.5781 87.8945 18.8359C87.8945 19.0312 87.9336 19.207 88.0117 19.3633C88.0977 19.5117 88.2344 19.6484 88.4219 19.7734C88.6094 19.8984 88.8516 20.0156 89.1484 20.125C89.4531 20.2266 89.8281 20.3203 90.2734 20.4062C91.1875 20.5938 92.0039 20.8398 92.7227 21.1445C93.4414 21.4414 94.0117 21.8477 94.4336 22.3633C94.8555 22.8711 95.0664 23.5391 95.0664 24.3672C95.0664 24.9297 94.9414 25.4453 94.6914 25.9141C94.4414 26.3828 94.082 26.793 93.6133 27.1445C93.1445 27.4883 92.582 27.7578 91.9258 27.9531C91.2773 28.1406 90.5469 28.2344 89.7344 28.2344C88.5547 28.2344 87.5547 28.0234 86.7344 27.6016C85.9219 27.1797 85.3047 26.6445 84.8828 25.9961C84.4688 25.3398 84.2617 24.668 84.2617 23.9805H87.4609C87.4766 24.4414 87.5938 24.8125 87.8125 25.0938C88.0391 25.375 88.3242 25.5781 88.668 25.7031C89.0195 25.8281 89.3984 25.8906 89.8047 25.8906C90.2422 25.8906 90.6055 25.832 90.8945 25.7148C91.1836 25.5898 91.4023 25.4258 91.5508 25.2227C91.707 25.0117 91.7852 24.7695 91.7852 24.4961ZM103.469 15.3203V17.7109H96.0859V15.3203H103.469ZM97.9141 12.1914H101.289V24.1797C101.289 24.5469 101.336 24.8281 101.43 25.0234C101.531 25.2188 101.68 25.3555 101.875 25.4336C102.07 25.5039 102.316 25.5391 102.613 25.5391C102.824 25.5391 103.012 25.5312 103.176 25.5156C103.348 25.4922 103.492 25.4688 103.609 25.4453L103.621 27.9297C103.332 28.0234 103.02 28.0977 102.684 28.1523C102.348 28.207 101.977 28.2344 101.57 28.2344C100.828 28.2344 100.18 28.1133 99.625 27.8711C99.0781 27.6211 98.6562 27.2227 98.3594 26.6758C98.0625 26.1289 97.9141 25.4102 97.9141 24.5195V12.1914ZM114.484 23.5352C114.484 23.2305 114.438 22.957 114.344 22.7148C114.258 22.4648 114.094 22.2383 113.852 22.0352C113.609 21.8242 113.27 21.6172 112.832 21.4141C112.395 21.2109 111.828 21 111.133 20.7812C110.359 20.5312 109.625 20.25 108.93 19.9375C108.242 19.625 107.633 19.2617 107.102 18.8477C106.578 18.4258 106.164 17.9375 105.859 17.3828C105.562 16.8281 105.414 16.1836 105.414 15.4492C105.414 14.7383 105.57 14.0938 105.883 13.5156C106.195 12.9297 106.633 12.4297 107.195 12.0156C107.758 11.5938 108.422 11.2695 109.188 11.043C109.961 10.8164 110.809 10.7031 111.73 10.7031C112.988 10.7031 114.086 10.9297 115.023 11.3828C115.961 11.8359 116.688 12.457 117.203 13.2461C117.727 14.0352 117.988 14.9375 117.988 15.9531H114.496C114.496 15.4531 114.391 15.0156 114.18 14.6406C113.977 14.2578 113.664 13.957 113.242 13.7383C112.828 13.5195 112.305 13.4102 111.672 13.4102C111.062 13.4102 110.555 13.5039 110.148 13.6914C109.742 13.8711 109.438 14.1172 109.234 14.4297C109.031 14.7344 108.93 15.0781 108.93 15.4609C108.93 15.75 109 16.0117 109.141 16.2461C109.289 16.4805 109.508 16.6992 109.797 16.9023C110.086 17.1055 110.441 17.2969 110.863 17.4766C111.285 17.6562 111.773 17.832 112.328 18.0039C113.258 18.2852 114.074 18.6016 114.777 18.9531C115.488 19.3047 116.082 19.6992 116.559 20.1367C117.035 20.5742 117.395 21.0703 117.637 21.625C117.879 22.1797 118 22.8086 118 23.5117C118 24.2539 117.855 24.918 117.566 25.5039C117.277 26.0898 116.859 26.5859 116.312 26.9922C115.766 27.3984 115.113 27.707 114.355 27.918C113.598 28.1289 112.75 28.2344 111.812 28.2344C110.969 28.2344 110.137 28.125 109.316 27.9062C108.496 27.6797 107.75 27.3398 107.078 26.8867C106.414 26.4336 105.883 25.8555 105.484 25.1523C105.086 24.4492 104.887 23.6172 104.887 22.6562H108.414C108.414 23.1875 108.496 23.6367 108.66 24.0039C108.824 24.3711 109.055 24.668 109.352 24.8945C109.656 25.1211 110.016 25.2852 110.43 25.3867C110.852 25.4883 111.312 25.5391 111.812 25.5391C112.422 25.5391 112.922 25.4531 113.312 25.2812C113.711 25.1094 114.004 24.8711 114.191 24.5664C114.387 24.2617 114.484 23.918 114.484 23.5352ZM126.016 28.2344C125.031 28.2344 124.148 28.0781 123.367 27.7656C122.586 27.4453 121.922 27.0039 121.375 26.4414C120.836 25.8789 120.422 25.2266 120.133 24.4844C119.844 23.7344 119.699 22.9375 119.699 22.0938V21.625C119.699 20.6641 119.836 19.7852 120.109 18.9883C120.383 18.1914 120.773 17.5 121.281 16.9141C121.797 16.3281 122.422 15.8789 123.156 15.5664C123.891 15.2461 124.719 15.0859 125.641 15.0859C126.539 15.0859 127.336 15.2344 128.031 15.5312C128.727 15.8281 129.309 16.25 129.777 16.7969C130.254 17.3438 130.613 18 130.855 18.7656C131.098 19.5234 131.219 20.3672 131.219 21.2969V22.7031H121.141V20.4531H127.902V20.1953C127.902 19.7266 127.816 19.3086 127.645 18.9414C127.48 18.5664 127.23 18.2695 126.895 18.0508C126.559 17.832 126.129 17.7227 125.605 17.7227C125.16 17.7227 124.777 17.8203 124.457 18.0156C124.137 18.2109 123.875 18.4844 123.672 18.8359C123.477 19.1875 123.328 19.6016 123.227 20.0781C123.133 20.5469 123.086 21.0625 123.086 21.625V22.0938C123.086 22.6016 123.156 23.0703 123.297 23.5C123.445 23.9297 123.652 24.3008 123.918 24.6133C124.191 24.9258 124.52 25.168 124.902 25.3398C125.293 25.5117 125.734 25.5977 126.227 25.5977C126.836 25.5977 127.402 25.4805 127.926 25.2461C128.457 25.0039 128.914 24.6406 129.297 24.1562L130.938 25.9375C130.672 26.3203 130.309 26.6875 129.848 27.0391C129.395 27.3906 128.848 27.6797 128.207 27.9062C127.566 28.125 126.836 28.2344 126.016 28.2344ZM136.516 18.0859V28H133.141V15.3203H136.316L136.516 18.0859ZM140.336 15.2383L140.277 18.3672C140.113 18.3438 139.914 18.3242 139.68 18.3086C139.453 18.2852 139.246 18.2734 139.059 18.2734C138.582 18.2734 138.168 18.3359 137.816 18.4609C137.473 18.5781 137.184 18.7539 136.949 18.9883C136.723 19.2227 136.551 19.5078 136.434 19.8438C136.324 20.1797 136.262 20.5625 136.246 20.9922L135.566 20.7812C135.566 19.9609 135.648 19.207 135.812 18.5195C135.977 17.8242 136.215 17.2188 136.527 16.7031C136.848 16.1875 137.238 15.7891 137.699 15.5078C138.16 15.2266 138.688 15.0859 139.281 15.0859C139.469 15.0859 139.66 15.1016 139.855 15.1328C140.051 15.1562 140.211 15.1914 140.336 15.2383ZM146.453 25.5391L149.266 15.3203H152.793L148.516 28H146.383L146.453 25.5391ZM144.52 15.3203L147.344 25.5508L147.402 28H145.258L140.98 15.3203H144.52ZM157.867 15.3203V28H154.48V15.3203H157.867ZM154.27 12.0156C154.27 11.5234 154.441 11.1172 154.785 10.7969C155.129 10.4766 155.59 10.3164 156.168 10.3164C156.738 10.3164 157.195 10.4766 157.539 10.7969C157.891 11.1172 158.066 11.5234 158.066 12.0156C158.066 12.5078 157.891 12.9141 157.539 13.2344C157.195 13.5547 156.738 13.7148 156.168 13.7148C155.59 13.7148 155.129 13.5547 154.785 13.2344C154.441 12.9141 154.27 12.5078 154.27 12.0156ZM165.895 25.5977C166.309 25.5977 166.676 25.5195 166.996 25.3633C167.316 25.1992 167.566 24.9727 167.746 24.6836C167.934 24.3867 168.031 24.0391 168.039 23.6406H171.215C171.207 24.5312 170.969 25.3242 170.5 26.0195C170.031 26.707 169.402 27.25 168.613 27.6484C167.824 28.0391 166.941 28.2344 165.965 28.2344C164.98 28.2344 164.121 28.0703 163.387 27.7422C162.66 27.4141 162.055 26.9609 161.57 26.3828C161.086 25.7969 160.723 25.1172 160.48 24.3438C160.238 23.5625 160.117 22.7266 160.117 21.8359V21.4961C160.117 20.5977 160.238 19.7617 160.48 18.9883C160.723 18.207 161.086 17.5273 161.57 16.9492C162.055 16.3633 162.66 15.9062 163.387 15.5781C164.113 15.25 164.965 15.0859 165.941 15.0859C166.98 15.0859 167.891 15.2852 168.672 15.6836C169.461 16.082 170.078 16.6523 170.523 17.3945C170.977 18.1289 171.207 19 171.215 20.0078H168.039C168.031 19.5859 167.941 19.2031 167.77 18.8594C167.605 18.5156 167.363 18.2422 167.043 18.0391C166.73 17.8281 166.344 17.7227 165.883 17.7227C165.391 17.7227 164.988 17.8281 164.676 18.0391C164.363 18.2422 164.121 18.5234 163.949 18.8828C163.777 19.2344 163.656 19.6367 163.586 20.0898C163.523 20.5352 163.492 21.0039 163.492 21.4961V21.8359C163.492 22.3281 163.523 22.8008 163.586 23.2539C163.648 23.707 163.766 24.1094 163.938 24.4609C164.117 24.8125 164.363 25.0898 164.676 25.293C164.988 25.4961 165.395 25.5977 165.895 25.5977ZM179.008 28.2344C178.023 28.2344 177.141 28.0781 176.359 27.7656C175.578 27.4453 174.914 27.0039 174.367 26.4414C173.828 25.8789 173.414 25.2266 173.125 24.4844C172.836 23.7344 172.691 22.9375 172.691 22.0938V21.625C172.691 20.6641 172.828 19.7852 173.102 18.9883C173.375 18.1914 173.766 17.5 174.273 16.9141C174.789 16.3281 175.414 15.8789 176.148 15.5664C176.883 15.2461 177.711 15.0859 178.633 15.0859C179.531 15.0859 180.328 15.2344 181.023 15.5312C181.719 15.8281 182.301 16.25 182.77 16.7969C183.246 17.3438 183.605 18 183.848 18.7656C184.09 19.5234 184.211 20.3672 184.211 21.2969V22.7031H174.133V20.4531H180.895V20.1953C180.895 19.7266 180.809 19.3086 180.637 18.9414C180.473 18.5664 180.223 18.2695 179.887 18.0508C179.551 17.832 179.121 17.7227 178.598 17.7227C178.152 17.7227 177.77 17.8203 177.449 18.0156C177.129 18.2109 176.867 18.4844 176.664 18.8359C176.469 19.1875 176.32 19.6016 176.219 20.0781C176.125 20.5469 176.078 21.0625 176.078 21.625V22.0938C176.078 22.6016 176.148 23.0703 176.289 23.5C176.438 23.9297 176.645 24.3008 176.91 24.6133C177.184 24.9258 177.512 25.168 177.895 25.3398C178.285 25.5117 178.727 25.5977 179.219 25.5977C179.828 25.5977 180.395 25.4805 180.918 25.2461C181.449 25.0039 181.906 24.6406 182.289 24.1562L183.93 25.9375C183.664 26.3203 183.301 26.6875 182.84 27.0391C182.387 27.3906 181.84 27.6797 181.199 27.9062C180.559 28.125 179.828 28.2344 179.008 28.2344Z" fill="#283044"/>
<g clip-path="url(#clip0_2401_2)">
<path d="M40.0316 0.425376C39.8785 0.161759 39.5966 -0.000319262 39.2919 1.05078e-06H30.7502C30.4431 -0.000479418 30.1594 0.163841 30.007 0.430501L16.3404 24.3472C16.1937 24.6075 16.1937 24.9257 16.3404 25.186L24.8821 40.561C25.0323 40.831 25.3164 40.9988 25.6253 41.0001H34.167C34.6387 41.0001 35.0211 40.6177 35.0211 40.146C35.0211 40.0007 34.9841 39.8578 34.9135 39.7308L26.6058 24.7708L40.035 1.27781C40.1859 1.01339 40.1846 0.688593 40.0316 0.425376Z" fill="#78A1BB"/>
<path d="M17.8164 15.7901L12.6914 7.24844C12.5371 6.99083 12.2588 6.83323 11.9585 6.83331H3.41684C2.9451 6.83323 2.56257 7.21561 2.56249 7.68735C2.56249 7.84206 2.60445 7.99389 2.68397 8.12657L7.55272 16.2394L0.965409 27.7638C0.731421 28.1734 0.8738 28.6952 1.2834 28.9292C1.41289 29.0031 1.55943 29.0419 1.70853 29.0417H10.2502C10.5573 29.0422 10.841 28.8779 10.9934 28.6112L17.8267 16.6529C17.9794 16.3846 17.9754 16.0547 17.8164 15.7901Z" fill="#65B3E4"/>
</g>
<defs>
<clipPath id="clip0_2401_2">
<rect width="41" height="41" fill="white"/>
</clipPath>
</defs>
</svg>
